<?xml version="1.0" encoding="UTF-8" standalone="no"?>
<!DOCTYPE svg PUBLIC "-//W3C//DTD SVG 1.1//EN" "http://www.w3.org/Graphics/SVG/1.1/DTD/svg11.dtd">
<svg width="100%" height="100%" viewBox="0 0 1000 1000" version="1.1" xmlns="http://www.w3.org/2000/svg" xmlnsXlink="http://www.w3.org/1999/xlink" xmlSpace="preserve" xmlnsSSKserif="http://www.serif.com/" style="fill-rule:evenodd;clip-rule:evenodd;stroke-linejoin:round;stroke-miterlimit:2;">
    <g transform="matrix(1.98385,0,0,1.98385,-145.432,-353.881)">
        <clipPath id="_clip1">
            <circle cx="325.5" cy="430.5" r="290"/>
        </clipPath>
        <g clip-path="url(#_clip1)">
            <path d="M426.975,198.55C431.238,197.122 434.782,193.229 439.513,193.578C442.099,213.504 435.361,233.729 431.148,253.196C441.141,262.819 450.984,272.732 459.13,283.993C478.157,284.382 499.4,280.748 517.539,288.325C508.045,304.657 492.143,316.147 478.975,329.424C476.11,332.948 470.25,334.875 470.37,340.106C469.342,357.526 462.314,373.808 454.418,389.121C461.066,394.442 474.793,395.6 475.322,405.593C466.587,404.385 459.818,396.309 450.844,394.682C446.441,400.132 442.518,405.962 437.637,411.044C443.477,419.239 455.905,425.429 454.557,436.829C445.753,433.495 441.57,423.292 434.871,416.973C432.545,413.16 428.982,417.233 426.576,418.75C410.623,430.879 389.18,429.681 370.492,426.397C347.143,423.153 325.67,412.96 305.055,402.039C282.065,389.381 253.694,385.737 228.757,394.652C223.057,396.539 218.115,400.182 212.325,401.819C203.161,393.474 200.346,380.656 192.23,371.612C190.533,372.32 190.443,374.127 190.652,375.704C192.419,387.394 197.7,398.475 205.996,406.931C203.65,409.057 201.673,413.869 197.85,412.421C189.734,409.107 181.868,405.194 174.081,401.201C171.555,399.553 166.055,400.412 167.922,404.405C173.802,413.699 186.58,414.218 194.316,420.936C184.054,436.649 179.252,455.068 176.786,473.466C165.855,483.149 156.172,494.19 146.898,505.471C145.75,506.968 144.213,508.506 144.502,510.562C160.045,514.046 176.157,513.816 191.82,516.282C197.241,521.493 201.354,527.992 206.795,533.233C210.858,537.765 216.188,541.469 218.694,547.189C219.443,563.8 212.874,580.881 217.247,597.233C234.297,589.915 249.781,579.244 264.805,568.442C268.908,567.294 272.941,570.119 276.944,570.858C312.762,580.641 349.439,590.834 386.934,588.338C400.78,588.817 414.027,584.215 426.975,579.902C442.598,574.292 458.411,568.552 472.377,559.408C507.945,535.569 536.466,500.929 551.171,460.548C561.124,434.653 561.244,406.541 564.019,379.318C564.438,369.545 564.997,359.792 565.017,350.019C570.348,363.555 571.426,378.659 572.864,393.114C577.246,436.56 566.125,480.294 548.535,519.796C536.965,544.404 523.159,568.462 503.673,587.709C490.016,605.987 470.79,618.725 451.533,630.395C391.366,666.862 316.655,674.38 248.932,657.818C187.159,643.073 132.183,601.096 102.125,545.082C79.514,503.015 70.37,453.86 76.799,406.451C80.722,373.548 90.885,340.904 109.363,313.202C119.495,298.917 129.308,284.152 142.386,272.323C176.227,240.238 220.801,218.565 267.7,215.91C299.205,213.474 331.29,216.01 361.807,224.445C366.14,225.314 371.051,228.888 375.194,225.653C391.436,214.812 408.806,205.728 426.975,198.55ZM254.502,496.906C254.882,492.872 255.99,485.046 261.58,486.284C263.407,491.545 260.851,497.574 263.467,502.536C267.6,506.828 273.669,502.636 278.661,503.255C280.957,504.233 280.727,507.338 278.88,508.685C269.956,515.593 254.762,508.036 254.502,496.906ZM204.918,434.673C207.114,432.157 211.037,434.862 209.071,437.757C206.655,442.829 206.914,449.797 212.505,452.632C217.436,456.146 222.827,452.213 227.988,452.103C228.597,459.21 219.153,459.51 214.142,459.201C202.592,458.771 198.469,442.719 204.918,434.673ZM422.163,345.447C418.809,346.415 412.23,348.102 413.349,352.574C418.42,354.491 424.18,351.097 429.051,353.912C432.985,358.265 429.81,365.203 433.524,369.475C439.144,371.871 439.583,363.735 439.264,360.091C439.913,351.087 431.318,342.352 422.163,345.447ZM357.305,300.943C358.773,303.769 362.436,302.411 364.912,302.281C370.972,300.694 377.52,305.995 377.371,312.214C377.5,315.688 373.936,318.194 374.396,321.678C379.287,323.455 383.26,319.012 384.289,314.64C386.904,303.729 375.853,293.127 365.152,294.614C361.678,294.714 356.846,296.771 357.305,300.943Z" style="fill:rgb(35,56,105);fill-rule:nonzero;"/>
        </g>
    </g>
</svg>
